<?xml version="1.0" encoding="utf-8"?>
<!-- Generator: Adobe Illustrator 22.1.0, SVG Export Plug-In . SVG Version: 6.00 Build 0)  -->
<svg version="1.1" id="Layer_1" xmlns="http://www.w3.org/2000/svg" xmlns:xlink="http://www.w3.org/1999/xlink" x="0px" y="0px"
	 viewBox="0 0 85 85" style="enable-background:new 0 0 85 85;" xml:space="preserve">
<style type="text/css">
	.st0{fill:#4163A7;}
	.st1{fill:#FFFFFF;}
</style>
<path class="st0" d="M79.7,0.5H5.1c-2.6,0-4.6,2.1-4.6,4.6v74.6c0,2.6,2.1,4.6,4.6,4.6h74.6c2.6,0,4.6-2.1,4.6-4.6c0,0,0,0,0,0V5.1
	C84.4,2.6,82.3,0.5,79.7,0.5z"/>
<path class="st1" d="M58.4,84.4V51.9h10.9L71,39.2H58.4v-8.1c0-3.7,1-6.2,6.3-6.2h6.7V13.7c-1.2-0.2-5.1-0.5-9.8-0.5
	c-9.7,0-16.3,5.9-16.3,16.7v9.3H34.4v12.7h10.9v32.4H58.4z"/>
</svg>
