<?xml version="1.0" encoding="utf-8"?>
<!-- Generator: Adobe Illustrator 22.1.0, SVG Export Plug-In . SVG Version: 6.00 Build 0)  -->
<svg version="1.1" id="Layer_1" xmlns="http://www.w3.org/2000/svg" xmlns:xlink="http://www.w3.org/1999/xlink" x="0px" y="0px"
	 viewBox="0 0 85 85" style="enable-background:new 0 0 85 85;" xml:space="preserve">
<style type="text/css">
	.st0{fill:url(#SVGID_1_);}
	.st1{fill:#FFFFFF;}
</style>
<linearGradient id="SVGID_1_" gradientUnits="userSpaceOnUse" x1="-410.6614" y1="422.6023" x2="-408.9272" y2="424.4665" gradientTransform="matrix(0 -42.2827 39.3387 0 -16618.6211 -17284.4844)">
	<stop  offset="0" style="stop-color:#F5D65B"/>
	<stop  offset="0.5" style="stop-color:#EA5642"/>
	<stop  offset="1" style="stop-color:#AC4191"/>
</linearGradient>
<path class="st0" d="M5.9,6.3c-6.6,6.9-5.3,14.2-5.3,36.3c0,18.4-3.2,36.9,13.6,41.2c5.2,1.4,51.8,1.4,57,0
	c7-1.8,12.7-7.5,13.5-17.4c0.1-1.4,0.1-46.2,0-47.6C83.8,8.3,77.3,2.2,68.8,1c-2-0.3-2.4-0.4-12.4-0.4C20.7,0.6,12.9-1,5.9,6.3
	L5.9,6.3z"/>
<path class="st1" d="M42.7,11.6c-12.7,0-24.8-1.1-29.4,10.7c-1.9,4.9-1.6,11.3-1.6,20.4c0,8-0.3,15.5,1.6,20.4
	C17.8,74.9,30,73.8,42.7,73.8c12.2,0,24.8,1.3,29.4-10.7c1.9-4.9,1.6-11.2,1.6-20.4c0-12.1,0.7-20-5.2-25.9
	C62.5,10.9,54.5,11.6,42.7,11.6L42.7,11.6z M39.9,17.2c26.6,0,29.9-3,28.1,38c-0.7,14.5-11.7,12.9-25.3,12.9
	c-24.8,0-25.5-0.7-25.5-25.5C17.2,17.6,19.2,17.2,39.9,17.2L39.9,17.2z M59.3,22.4c-2.1,0-3.7,1.7-3.7,3.7s1.7,3.7,3.7,3.7
	s3.7-1.7,3.7-3.7S61.3,22.4,59.3,22.4z M42.7,26.7c-8.8,0-16,7.1-16,16s7.1,16,16,16s16-7.1,16-16S51.5,26.7,42.7,26.7L42.7,26.7z
	 M42.7,32.3c13.7,0,13.7,20.7,0,20.7C29,53,29,32.3,42.7,32.3z"/>
</svg>
