<?xml version="1.0" encoding="utf-8"?>
<!-- Generator: Adobe Illustrator 22.1.0, SVG Export Plug-In . SVG Version: 6.00 Build 0)  -->
<svg version="1.1" id="Layer_1" xmlns="http://www.w3.org/2000/svg" xmlns:xlink="http://www.w3.org/1999/xlink" x="0px" y="0px"
	 viewBox="0 0 595.3 595.3" style="enable-background:new 0 0 595.3 595.3;" xml:space="preserve">
<style type="text/css">
	.st0{fill:#FFFFFF;}
	.st1{fill:#92655A;}
	.st2{fill:#FFFFFF;stroke:#FFFFFF;stroke-miterlimit:10;}
</style>
<g>
	<path class="st0" d="M404.8,83.8c-7.9-20.6-34.2-27-41.9-28.9c-52-12.6-99,29.1-104.5,34.2c-10.3,9.4-21.8,23-36.5,52.4
		c-27.7,55.7-34.4,107.6-37.7,134.9c-12.8,105.9,7.3,207.5,17.5,251.3c18.6,0.1,37.1,0.3,55.7,0.4c15.6,0.1,31.3,0.1,46.9,0.2
		c-6-9.6-13.7-22.4-21.7-38.1c-10.9-21.2-28.5-59.4-40.9-109.9c-2.3-9.4-13.7-57.1-13.7-106.4v0c-0.1-10.2,0.2-19.8,0.9-28.5
		c0.7-9.2,1.2-15.4,3.1-23.6c2.1-9.5,4.2-18.8,10.7-27.9c5.7-7.9,12.2-12.3,15.6-14.4c35.6-23,120.1-21,142.8-59.4
		C407.7,109,409.1,94.9,404.8,83.8z"/>
	<ellipse transform="matrix(0.909 -0.4168 0.4168 0.909 -19.3657 140.4739)" class="st1" cx="312" cy="114.6" rx="39" ry="16.7"/>
	<path class="st2" d="M336,528.2c30.4,0.3,60.7,0.5,91.1,0.8c-42.5-42.5-69.8-82.8-86.6-111.4c-22-37.4-34-68.5-39.9-84.8
		c-6.5-18.3-11.1-31.4-14.2-50.4c-6.3-38.2-1.7-70,0.4-84c1.2-7.9,2.5-14.4,3.5-19c-6.5,1.3-21.8,5.3-32.8,19
		c-0.1,0.1-0.2,0.2-0.3,0.4c0,0-3.6,4.6-6.2,10.2c-10,21.7-6.7,68-6.7,68c1.4,19.7,2.8,39,8.3,65.5l0,0c1.6,8.2,9.1,45.5,30.9,94.3
		C300.1,473.8,319.3,504.7,336,528.2z"/>
</g>
</svg>
