<?xml version="1.0" encoding="utf-8"?>
<!-- Generator: Adobe Illustrator 22.1.0, SVG Export Plug-In . SVG Version: 6.00 Build 0)  -->
<svg version="1.1" xmlns="http://www.w3.org/2000/svg" xmlns:xlink="http://www.w3.org/1999/xlink" x="0px" y="0px"
	 viewBox="0 0 595.3 595.3" style="enable-background:new 0 0 595.3 595.3;" xml:space="preserve">
<style type="text/css">
	.st0{fill:#592018;}
	.st1{fill:#FFFFFF;}
	.st2{fill:#DEB37E;}
	.st3{fill:#FFFFFF;stroke:#FFFFFF;stroke-miterlimit:10;}
</style>
<g id="Layer_2">
	<rect x="-4" y="-5" class="st0" width="603" height="605"/>
</g>
<g id="Layer_1">
	<path class="st1" d="M368.2,180.7c-4.9-12.7-21-16.6-25.8-17.8c-32-7.8-60.8,17.9-64.3,21c-6.3,5.8-13.4,14.1-22.4,32.2
		c-17,34.3-21.1,66.1-23.2,82.9c-7.9,65.1,4.5,127.6,10.8,154.5c11.4,0.1,22.8,0.2,34.3,0.2c9.6,0,19.2,0.1,28.8,0.1
		c-3.7-5.9-8.4-13.8-13.3-23.4c-6.7-13-17.5-36.5-25.2-67.6c-1.4-5.8-8.4-35.1-8.4-65.4v0c-0.1-6.3,0.1-12.2,0.6-17.5
		c0.5-5.6,0.8-9.5,1.9-14.5c1.3-5.8,2.6-11.6,6.6-17.2c3.5-4.9,7.5-7.5,9.6-8.9c21.9-14.1,73.8-12.9,87.8-36.5
		C370,196.3,370.9,187.6,368.2,180.7z"/>
	<ellipse transform="matrix(0.909 -0.4168 0.4168 0.909 -54.9134 147.8859)" class="st2" cx="311.2" cy="199.7" rx="24" ry="10.3"/>
	<path class="st3" d="M325.9,454c18.7,0.2,37.3,0.3,56,0.5c-26.1-26.1-42.9-50.9-53.3-68.5c-13.5-23-20.9-42.1-24.5-52.1
		c-4-11.2-6.8-19.3-8.8-31c-3.9-23.5-1.1-43.1,0.3-51.7c0.7-4.8,1.5-8.8,2.2-11.7c-4,0.8-13.4,3.3-20.2,11.7c0,0.1-0.1,0.1-0.2,0.2
		c0,0-2.2,2.8-3.8,6.3c-6.1,13.3-4.1,41.8-4.1,41.8c0.9,12.1,1.7,24,5.1,40.3l0,0c1,5,5.6,28,19,58
		C303.9,420.5,315.7,439.5,325.9,454z"/>
</g>
</svg>
