<?xml version="1.0" encoding="utf-8"?>
<!-- Generator: Adobe Illustrator 22.1.0, SVG Export Plug-In . SVG Version: 6.00 Build 0)  -->
<svg version="1.1" xmlns="http://www.w3.org/2000/svg" xmlns:xlink="http://www.w3.org/1999/xlink" x="0px" y="0px"
	 viewBox="0 0 595.3 595.3" style="enable-background:new 0 0 595.3 595.3;" xml:space="preserve">
<style type="text/css">
	.st0{fill:#592018;}
	.st1{fill:#FFFFFF;}
	.st2{fill:#DEB37E;}
	.st3{fill:#FFFFFF;stroke:#FFFFFF;stroke-miterlimit:10;}
</style>
<g id="Layer_2">
	<rect x="-4" y="-5" class="st0" width="603" height="605"/>
</g>
<g id="Layer_1">
	<g>
		<path class="st1" d="M432.7,46.9c-9.6-25-41.5-32.8-50.8-35C318.8-3.4,261.8,47.2,255.1,53.3c-12.5,11.4-26.5,27.9-44.3,63.6
			c-33.6,67.6-41.7,130.5-45.8,163.7C149.6,409,174,532.3,186.3,585.5c22.5,0.2,45.1,0.3,67.6,0.4c19,0.1,37.9,0.2,56.9,0.2
			c-7.3-11.6-16.6-27.2-26.3-46.3c-13.2-25.7-34.6-72-49.6-133.4c-2.8-11.4-16.6-69.2-16.6-129.1v0c-0.2-12.4,0.3-24,1.1-34.6
			c0.9-11.1,1.5-18.7,3.7-28.6c2.6-11.5,5.1-22.8,13-33.9c6.9-9.6,14.8-14.9,18.9-17.5c43.2-27.9,145.7-25.5,173.3-72
			C436.2,77.5,437.9,60.3,432.7,46.9z"/>
		
			<ellipse transform="matrix(0.909 -0.4168 0.4168 0.909 -5.9866 141.0925)" class="st2" cx="320.1" cy="84.3" rx="47.3" ry="20.3"/>
		<path class="st3" d="M349.2,586c36.8,0.3,73.7,0.7,110.5,1c-51.5-51.6-84.7-100.4-105.1-135.2c-26.6-45.3-41.3-83.1-48.3-102.9
			c-7.9-22.2-13.5-38.1-17.3-61.2c-7.6-46.4-2.1-85,0.5-102c1.4-9.5,3-17.5,4.3-23c-7.9,1.6-26.5,6.5-39.8,23
			c-0.1,0.1-0.2,0.3-0.4,0.5c0,0-4.4,5.6-7.5,12.4c-12.1,26.3-8.1,82.5-8.1,82.5c1.7,23.9,3.4,47.4,10.1,79.4l0,0
			c1.9,10,11,55.2,37.5,114.4C305.7,520,329,557.5,349.2,586z"/>
	</g>
</g>
</svg>
